<mxfile host="app.diagrams.net" modified="2024-01-25T06:58:45.520Z" agent="Mozilla/5.0 (Windows NT 10.0; Win64; x64) AppleWebKit/537.36 (KHTML, like Gecko) Chrome/120.0.0.0 Safari/537.36" etag="6rJn1w4K9I72fdKC7AgW" version="23.0.1" type="github">
  <diagram name="第 1 页" id="H1nVQgGb2neU2fgsevfg">
    <mxGraphModel dx="1434" dy="780" grid="1" gridSize="10" guides="1" tooltips="1" connect="1" arrows="1" fold="1" page="1" pageScale="1" pageWidth="827" pageHeight="1169" math="0" shadow="0">
      <root>
        <mxCell id="0" />
        <mxCell id="1" parent="0" />
        <mxCell id="RpMdboRiBtHjFqnN1tty-9" style="edgeStyle=orthogonalEdgeStyle;rounded=0;orthogonalLoop=1;jettySize=auto;html=1;entryX=0;entryY=0.5;entryDx=0;entryDy=0;fontFamily=Times New Roman;" edge="1" parent="1" source="RpMdboRiBtHjFqnN1tty-1" target="RpMdboRiBtHjFqnN1tty-2">
          <mxGeometry relative="1" as="geometry" />
        </mxCell>
        <mxCell id="RpMdboRiBtHjFqnN1tty-10" style="edgeStyle=orthogonalEdgeStyle;rounded=0;orthogonalLoop=1;jettySize=auto;html=1;entryX=0;entryY=0.5;entryDx=0;entryDy=0;fontFamily=Times New Roman;" edge="1" parent="1" source="RpMdboRiBtHjFqnN1tty-1" target="RpMdboRiBtHjFqnN1tty-7">
          <mxGeometry relative="1" as="geometry" />
        </mxCell>
        <mxCell id="RpMdboRiBtHjFqnN1tty-18" value="convert" style="edgeLabel;html=1;align=center;verticalAlign=middle;resizable=0;points=[];fontFamily=Times New Roman;" vertex="1" connectable="0" parent="RpMdboRiBtHjFqnN1tty-10">
          <mxGeometry x="0.4857" y="-1" relative="1" as="geometry">
            <mxPoint x="-22" y="-11" as="offset" />
          </mxGeometry>
        </mxCell>
        <mxCell id="RpMdboRiBtHjFqnN1tty-11" style="edgeStyle=orthogonalEdgeStyle;rounded=0;orthogonalLoop=1;jettySize=auto;html=1;entryX=0;entryY=0.5;entryDx=0;entryDy=0;fontFamily=Times New Roman;" edge="1" parent="1" source="RpMdboRiBtHjFqnN1tty-1" target="RpMdboRiBtHjFqnN1tty-8">
          <mxGeometry relative="1" as="geometry" />
        </mxCell>
        <mxCell id="RpMdboRiBtHjFqnN1tty-1" value="linalg方言" style="rounded=1;whiteSpace=wrap;html=1;fontFamily=Times New Roman;" vertex="1" parent="1">
          <mxGeometry x="110" y="138" width="80" height="40" as="geometry" />
        </mxCell>
        <mxCell id="RpMdboRiBtHjFqnN1tty-12" style="edgeStyle=orthogonalEdgeStyle;rounded=0;orthogonalLoop=1;jettySize=auto;html=1;entryX=0;entryY=0.5;entryDx=0;entryDy=0;fontFamily=Times New Roman;" edge="1" parent="1" source="RpMdboRiBtHjFqnN1tty-2" target="RpMdboRiBtHjFqnN1tty-3">
          <mxGeometry relative="1" as="geometry" />
        </mxCell>
        <mxCell id="RpMdboRiBtHjFqnN1tty-2" value="affine方言" style="rounded=1;whiteSpace=wrap;html=1;fontFamily=Times New Roman;" vertex="1" parent="1">
          <mxGeometry x="260" y="88" width="70" height="40" as="geometry" />
        </mxCell>
        <mxCell id="RpMdboRiBtHjFqnN1tty-5" style="edgeStyle=orthogonalEdgeStyle;rounded=0;orthogonalLoop=1;jettySize=auto;html=1;fontFamily=Times New Roman;" edge="1" parent="1" source="RpMdboRiBtHjFqnN1tty-3" target="RpMdboRiBtHjFqnN1tty-4">
          <mxGeometry relative="1" as="geometry" />
        </mxCell>
        <mxCell id="RpMdboRiBtHjFqnN1tty-29" value="translate" style="edgeLabel;html=1;align=center;verticalAlign=middle;resizable=0;points=[];fontFamily=Times New Roman;" vertex="1" connectable="0" parent="RpMdboRiBtHjFqnN1tty-5">
          <mxGeometry x="-0.0667" relative="1" as="geometry">
            <mxPoint y="-10" as="offset" />
          </mxGeometry>
        </mxCell>
        <mxCell id="RpMdboRiBtHjFqnN1tty-3" value="llvm方言" style="rounded=1;whiteSpace=wrap;html=1;fontFamily=Times New Roman;" vertex="1" parent="1">
          <mxGeometry x="410" y="138" width="70" height="40" as="geometry" />
        </mxCell>
        <mxCell id="RpMdboRiBtHjFqnN1tty-4" value="llvm-IR" style="rounded=1;whiteSpace=wrap;html=1;fontFamily=Times New Roman;" vertex="1" parent="1">
          <mxGeometry x="550" y="138" width="70" height="40" as="geometry" />
        </mxCell>
        <mxCell id="RpMdboRiBtHjFqnN1tty-13" style="edgeStyle=orthogonalEdgeStyle;rounded=0;orthogonalLoop=1;jettySize=auto;html=1;entryX=0;entryY=0.5;entryDx=0;entryDy=0;fontFamily=Times New Roman;" edge="1" parent="1" source="RpMdboRiBtHjFqnN1tty-7" target="RpMdboRiBtHjFqnN1tty-3">
          <mxGeometry relative="1" as="geometry" />
        </mxCell>
        <mxCell id="RpMdboRiBtHjFqnN1tty-19" value="convert" style="edgeLabel;html=1;align=center;verticalAlign=middle;resizable=0;points=[];fontFamily=Times New Roman;" vertex="1" connectable="0" parent="RpMdboRiBtHjFqnN1tty-13">
          <mxGeometry x="-0.35" y="1" relative="1" as="geometry">
            <mxPoint x="14" y="-9" as="offset" />
          </mxGeometry>
        </mxCell>
        <mxCell id="RpMdboRiBtHjFqnN1tty-7" value="scf方言" style="rounded=1;whiteSpace=wrap;html=1;fontFamily=Times New Roman;" vertex="1" parent="1">
          <mxGeometry x="260" y="138" width="70" height="40" as="geometry" />
        </mxCell>
        <mxCell id="RpMdboRiBtHjFqnN1tty-14" style="edgeStyle=orthogonalEdgeStyle;rounded=0;orthogonalLoop=1;jettySize=auto;html=1;entryX=0;entryY=0.5;entryDx=0;entryDy=0;fontFamily=Times New Roman;" edge="1" parent="1" source="RpMdboRiBtHjFqnN1tty-8" target="RpMdboRiBtHjFqnN1tty-3">
          <mxGeometry relative="1" as="geometry" />
        </mxCell>
        <mxCell id="RpMdboRiBtHjFqnN1tty-8" value="其他方言" style="rounded=1;whiteSpace=wrap;html=1;fontFamily=Times New Roman;" vertex="1" parent="1">
          <mxGeometry x="260" y="188" width="70" height="40" as="geometry" />
        </mxCell>
        <mxCell id="RpMdboRiBtHjFqnN1tty-25" style="edgeStyle=orthogonalEdgeStyle;curved=1;rounded=0;orthogonalLoop=1;jettySize=auto;html=1;exitX=0.25;exitY=0;exitDx=0;exitDy=0;entryX=0.75;entryY=0;entryDx=0;entryDy=0;fontFamily=Times New Roman;" edge="1" parent="1" source="RpMdboRiBtHjFqnN1tty-1" target="RpMdboRiBtHjFqnN1tty-1">
          <mxGeometry relative="1" as="geometry">
            <Array as="points">
              <mxPoint x="130" y="88" />
              <mxPoint x="170" y="88" />
            </Array>
          </mxGeometry>
        </mxCell>
        <mxCell id="RpMdboRiBtHjFqnN1tty-26" value="transform" style="edgeLabel;html=1;align=center;verticalAlign=middle;resizable=0;points=[];fontFamily=Times New Roman;" vertex="1" connectable="0" parent="RpMdboRiBtHjFqnN1tty-25">
          <mxGeometry y="-4" relative="1" as="geometry">
            <mxPoint as="offset" />
          </mxGeometry>
        </mxCell>
        <mxCell id="RpMdboRiBtHjFqnN1tty-27" style="edgeStyle=orthogonalEdgeStyle;curved=1;rounded=0;orthogonalLoop=1;jettySize=auto;html=1;exitX=0.25;exitY=0;exitDx=0;exitDy=0;entryX=0.75;entryY=0;entryDx=0;entryDy=0;fontFamily=Times New Roman;" edge="1" parent="1">
          <mxGeometry relative="1" as="geometry">
            <mxPoint x="267" y="90" as="sourcePoint" />
            <mxPoint x="307" y="90" as="targetPoint" />
            <Array as="points">
              <mxPoint x="267" y="40" />
              <mxPoint x="307" y="40" />
            </Array>
          </mxGeometry>
        </mxCell>
        <mxCell id="RpMdboRiBtHjFqnN1tty-28" value="transform" style="edgeLabel;html=1;align=center;verticalAlign=middle;resizable=0;points=[];fontFamily=Times New Roman;" vertex="1" connectable="0" parent="RpMdboRiBtHjFqnN1tty-27">
          <mxGeometry y="-4" relative="1" as="geometry">
            <mxPoint as="offset" />
          </mxGeometry>
        </mxCell>
      </root>
    </mxGraphModel>
  </diagram>
</mxfile>
